<?xml version="1.0" encoding="UTF-8"?>
<svg width="16px" height="23px" viewBox="0 0 16 23" version="1.1" xmlns="http://www.w3.org/2000/svg" xmlns:xlink="http://www.w3.org/1999/xlink">
    <!-- Generator: Sketch 43.2 (39069) - http://www.bohemiancoding.com/sketch -->
    <title>guide_bg</title>
    <desc>Created with Sketch.</desc>
    <defs></defs>
    <g id="Page-1" stroke="none" stroke-width="1" fill="none" fill-rule="evenodd">
        <g id="guide_bg">
            <rect id="Rectangle-13" fill="#44404F" x="-8" y="-6" width="112" height="102"></rect>
            <path d="M2.49856365,1.69999194 C1.1525647,1.69999194 0,2.85255664 0,4.19855559 L0,20.0985061 C0,21.2235639 0.919221567,22.1427854 2.04427935,22.1427854 L15.4456662,22.1427854 C15.6834613,22.1427854 15.8999505,21.9262917 15.8999505,21.6885011 L15.8999505,6.24283494 C15.9034985,5.98552831 15.7145094,5.78412136 15.4456662,5.78855064 C14.6524404,5.78855064 13.8556711,4.9917814 13.8556711,4.19855559 C13.8556711,3.40532977 14.6524404,2.60856054 15.4456662,2.60856054 C15.685233,2.6121085 15.8999505,2.39472665 15.8999505,2.15427624 C15.8999505,1.91382583 15.6852307,1.69644852 15.4456662,1.69999194 L2.49856365,1.69999194 Z M2.49856365,2.60856054 L13.5433507,2.60856054 C13.1751306,3.04510504 12.9471025,3.6031933 12.9471025,4.19855559 C12.9471025,4.79391788 13.1751306,5.35200614 13.5433507,5.78855064 L2.49856365,5.78855064 C1.70533783,5.78855064 0.9085686,4.9917814 0.9085686,4.19855559 C0.9085686,3.40532977 1.70533783,2.60856054 2.49856365,2.60856054 Z M0.9085686,6.10087109 C1.3451131,6.46909123 1.90320136,6.69711924 2.49856365,6.69711924 L14.9913819,6.69711924 L14.9913819,21.2342168 L2.04427935,21.2342168 C1.40721376,21.2342168 0.9085686,20.7355717 0.9085686,20.0985061 L0.9085686,6.10087109 Z M3.6342744,9.87710934 C3.38316875,9.87710934 3.1799901,10.0802948 3.1799901,10.3313936 C3.1799901,10.5824925 3.38317557,10.7856779 3.6342744,10.7856779 L12.2656761,10.7856779 C12.5167817,10.7856779 12.7199604,10.5824925 12.7199604,10.3313936 C12.7199604,10.0802948 12.5167749,9.87710934 12.2656761,9.87710934 L3.6342744,9.87710934 Z M3.6342744,13.5113837 C3.38316875,13.5113837 3.1799901,13.7145692 3.1799901,13.965668 C3.1799901,14.2167669 3.38317557,14.4199523 3.6342744,14.4199523 L12.2656761,14.4199523 C12.5167817,14.4199523 12.7199604,14.2167669 12.7199604,13.965668 C12.7199604,13.7145692 12.5167749,13.5113837 12.2656761,13.5113837 L3.6342744,13.5113837 Z M3.6342744,17.1456581 C3.38316875,17.1456581 3.1799901,17.3488436 3.1799901,17.5999424 C3.1799901,17.8510413 3.38317557,18.0542267 3.6342744,18.0542267 L12.2656761,18.0542267 C12.5167817,18.0542267 12.7199604,17.8510413 12.7199604,17.5999424 C12.7199604,17.3488436 12.5167749,17.1456581 12.2656761,17.1456581 L3.6342744,17.1456581 Z" id="Page-1" fill="#FFFFFF"></path>
        </g>
    </g>
</svg>